{"title":"Passion HD -  Faye Reagan","uid":11116220,"size":122863139,"categoryP":"porn","categoryS":"movie_clips","magnet":"?xt=urn:btih:b6f3a25b84914abc6cc51709f7ef22d75f04ae60&amp;dn=Passion+HD+-++Faye+Reagan&amp;tr=udp%3A%2F%2Ftracker.openbittorrent.com%3A80&amp;tr=udp%3A%2F%2Fopen.demonii.com%3A1337&amp;tr=udp%3A%2F%2Ftracker.coppersurfer.tk%3A6969&amp;tr=udp%3A%2F%2Fexodus.desync.com%3A6969","seeders":0,"leechers":0,"uploader":"supertongo","files":1,"time":1411857463,"description":"\nPassion HD -  Faye Reagan video in ipod/psp compatible resolution\n\n:::Media info:::\nGeneral\n\nFormat                         : MPEG-4\nFormat profile                 : Base Media\nCodec ID                       : isom\nFile size                      : 117 MiB\nDuration                       : 14mn 48s\nOverall bit rate               : 1 106 Kbps\nEncoded date                   : UTC 2011-12-15 02:27:47\nTagged date                    : UTC 2011-12-15 02:27:47\nWriting application            : Lavf53.24.0\n\nVideo\nID                             : 1\nFormat                         : AVC\nFormat/Info                    : Advanced Video Codec\nFormat profile                 : &lt;a class=&quot;__cf_email__&quot; href=&quot;/cdn-cgi/l/email-protection&quot; data-cfemail=&quot;c880a1afa08884fbe6f8&quot;&gt;[email&amp;#160;protected]&lt;/a&gt;&lt;script data-cfhash='f9e31' type=&quot;text/javascript&quot;&gt;\n/* &lt;![CDATA[ */!function(){try{var t=&quot;currentScript&quot;in document?document.currentScript:function(){for(var t=document.getElementsByTagName(&quot;script&quot;),e=t.length;e--;)if(t[e].getAttribute(&quot;data-cfhash&quot;))return t[e]}();if(t&amp;&amp;t.previousSibling){var e,r,n,i,c=t.previousSibling,a=c.getAttribute(&quot;data-cfemail&quot;);if(a){for(e=&quot;&quot;,r=parseInt(a.substr(0,2),16),n=2;a.length-n;n+=2)i=parseInt(a.substr(n,2),16)^r,e+=String.fromCharCode(i);e=document.createTextNode(e),c.parentNode.replaceChild(e,c)}t.parentNode.removeChild(t);}}catch(u){}}()/* ]]&gt; */&lt;/script&gt;\nFormat settings, CABAC         : Yes\nFormat settings, ReFrames      : 5 frames\nCodec ID                       : avc1\nCodec ID/Info                  : Advanced Video Coding\nDuration                       : 14mn 48s\nBit rate                       : 1 000 Kbps\nWidth                          : 750 pixels\nHeight                         : 420 pixels\nDisplay aspect ratio           : 16:9\nOriginal display aspect ratio  : 16:9\nFrame rate mode                : Constant\nFrame rate                     : 23.976 fps\nColor space                    : YUV\nChroma subsampling             : 4:2:0\nBit depth                      : 8 bits\nScan type                      : Progressive\nBits/(Pixel*Frame)             : 0.132\nStream size                    : 106 MiB (91%)\n\n\nAudio\nID                             : 2\nFormat                         : AAC\nFormat/Info                    : Advanced Audio Codec\nFormat profile                 : LC\nCodec ID                       : 40\nDuration                       : 14mn 48s\nBit rate mode                  : Constant\nBit rate                       : 96.0 Kbps\nChannel(s)                     : 2 channels\nChannel positions              : Front: L R\nSampling rate                  : 48.0 KHz\nCompression mode               : Lossy\nStream size                    : 10.1 MiB (9%)\nLanguage                       : English\n\n\n &lt;a href=&quot;\nhttp://bayimg.com/kaaLKAaGk&quot; rel=&quot;nofollow&quot; target=&quot;_NEW&quot;&gt;\nhttp://bayimg.com/kaaLKAaGk&lt;/a&gt;","torrent":{"xt":"urn:btih:b6f3a25b84914abc6cc51709f7ef22d75f04ae60","amp;dn":"Passion+HD+-++Faye+Reagan","amp;tr":["udp%3A%2F%2Ftracker.openbittorrent.com%3A80","udp%3A%2F%2Fopen.demonii.com%3A1337","udp%3A%2F%2Ftracker.coppersurfer.tk%3A6969","udp%3A%2F%2Fexodus.desync.com%3A6969"],"infoHash":"b6f3a25b84914abc6cc51709f7ef22d75f04ae60","infoHashBuffer":{"type":"Buffer","data":[182,243,162,91,132,145,74,188,108,197,23,9,247,239,34,215,95,4,174,96]},"announce":[],"urlList":[]}}